<svg xmlns="http://www.w3.org/2000/svg" viewBox="0 0 1000 934" width="1000" height="934">
<rect width="100%" height="100%" fill="white"/>
<g fill="none" stroke="#111" stroke-width="1">
  <path d="M 283.67,587.36 L 275.87,594.38 L 269.11,592.30 L 268.33,596.20 L 253.51,595.16 L 250.13,599.06 L 228.29,597.24 L 222.31,603.74 L 206.45,607.64 L 166.67,607.64 L 161.73,598.02 L 163.55,584.76 L 159.91,575.40 L 164.85,563.18 L 192.93,566.04 L 200.99,549.14 L 195.01,546.02 L 194.75,536.66 L 211.39,540.82 L 218.93,527.82 L 207.75,516.64 L 203.07,516.90 L 203.85,513.00 L 215.81,505.98 L 223.35,491.94 L 245.71,481.28 L 270.15,484.14 L 278.99,475.82 L 284.19,461.26 L 278.99,442.02 L 282.89,434.22 L 282.11,417.58 L 297.71,412.64 L 307.33,422.26 L 328.65,422.78 L 324.23,428.24 L 334.63,432.92 L 328.91,441.24 L 338.53,440.98 L 336.97,452.16 L 341.91,450.34 L 343.47,444.10 L 346.33,450.60 L 342.17,456.32 L 347.11,459.96 L 338.01,477.64 L 332.29,476.60 L 335.67,514.56 L 326.83,530.68 L 330.73,533.80 L 325.01,551.74 L 301.87,554.08 L 291.21,568.12 L 287.57,586.84 L 283.67,587.36 Z" data-name="Balaraja"/>
  <path d="M 444.88,507.54 L 484.14,509.36 L 489.86,496.62 L 496.36,498.70 L 508.58,479.46 L 516.38,477.38 L 520.54,481.02 L 554.34,484.92 L 552.52,497.14 L 556.42,497.66 L 557.72,504.42 L 554.08,516.12 L 562.14,521.32 L 565.00,528.86 L 568.12,527.82 L 564.22,535.36 L 571.50,538.22 L 567.08,546.28 L 572.28,550.44 L 566.30,559.02 L 565.26,569.42 L 561.10,570.72 L 563.44,572.54 L 549.92,586.32 L 552.78,587.62 L 549.92,595.68 L 538.74,599.32 L 530.94,607.12 L 526.00,617.52 L 528.60,619.34 L 521.58,627.93 L 505.46,624.54 L 504.94,628.97 L 495.06,628.19 L 495.06,625.07 L 485.18,622.20 L 463.34,632.87 L 439.16,621.68 L 437.86,626.37 L 431.88,626.63 L 433.96,630.01 L 418.36,619.34 L 417.32,613.88 L 408.48,619.08 L 409.00,624.02 L 387.16,632.09 L 391.06,626.37 L 386.90,624.80 L 388.20,618.82 L 383.52,624.80 L 378.58,624.54 L 380.14,617.00 L 373.63,619.60 L 379.88,611.80 L 364.27,603.48 L 368.69,598.02 L 375.20,601.14 L 375.46,598.02 L 360.89,584.50 L 366.87,580.08 L 358.55,578.78 L 364.01,576.70 L 364.01,568.12 L 358.81,566.82 L 354.39,553.04 L 357.77,548.88 L 360.89,553.30 L 362.97,550.70 L 356.21,541.86 L 358.55,536.14 L 363.23,536.40 L 361.41,525.74 L 357.25,524.96 L 361.15,518.20 L 356.73,518.72 L 355.17,513.52 L 354.39,519.50 L 348.67,518.72 L 348.93,510.40 L 340.87,513.00 L 345.03,507.80 L 336.71,500.00 L 331.51,483.10 L 362.19,488.56 L 369.21,492.72 L 366.09,497.40 L 373.63,503.90 L 375.20,496.62 L 400.16,507.80 L 408.48,504.68 L 444.88,507.54 Z" data-name="Cikupa"/>
  <path d="M 685.39,930.84 L 672.65,923.30 L 669.01,926.42 L 671.87,933.44 L 661.21,933.70 L 659.13,923.04 L 653.93,923.56 L 648.99,918.88 L 652.37,917.58 L 646.39,916.80 L 651.85,906.40 L 645.35,904.32 L 651.85,880.14 L 663.81,877.54 L 684.09,881.18 L 704.11,872.59 L 708.01,840.35 L 749.87,840.09 L 759.23,831.77 L 783.41,829.43 L 794.33,802.91 L 798.23,750.91 L 819.55,752.99 L 817.21,767.29 L 822.93,771.97 L 826.05,786.53 L 831.51,792.77 L 821.63,812.01 L 835.93,811.49 L 839.57,816.43 L 831.25,817.47 L 829.69,823.45 L 827.61,835.15 L 835.15,843.47 L 819.55,862.71 L 799.79,874.67 L 799.79,884.56 L 820.07,903.02 L 825.27,925.38 L 810.71,932.40 L 752.21,929.02 L 685.39,930.84 Z" data-name="Cisauk"/>
  <path d="M 261.83,663.81 L 270.67,670.31 L 281.33,669.27 L 285.23,674.21 L 292.51,699.95 L 290.95,735.83 L 266.51,740.77 L 259.75,736.35 L 260.01,723.09 L 208.79,730.37 L 204.89,721.53 L 192.67,714.25 L 190.85,718.67 L 186.69,717.37 L 185.65,726.99 L 169.01,724.65 L 169.01,719.97 L 145.09,719.71 L 139.63,714.77 L 137.55,704.89 L 129.75,710.35 L 124.80,706.19 L 129.23,698.13 L 125.59,692.93 L 130.01,689.03 L 118.04,682.27 L 125.85,678.89 L 120.64,670.31 L 112.84,671.61 L 121.16,647.69 L 119.08,637.81 L 124.54,635.99 L 127.93,627.41 L 122.46,615.96 L 115.96,616.22 L 120.90,609.98 L 116.74,594.64 L 124.02,589.96 L 119.86,586.06 L 123.76,580.60 L 145.87,605.30 L 163.03,602.70 L 166.67,607.64 L 193.71,609.72 L 222.31,603.74 L 228.29,597.24 L 257.41,596.46 L 254.29,604.26 L 260.01,614.92 L 257.67,638.85 L 264.43,656.01 L 260.79,658.61 L 261.83,663.81 Z" data-name="Cisoka"/>
  <path d="M 642.49,670.57 L 634.17,683.57 L 624.80,681.75 L 617.26,689.55 L 604.00,694.23 L 603.22,699.43 L 596.72,703.33 L 577.74,705.41 L 571.76,696.83 L 562.66,696.05 L 558.24,690.33 L 552.00,693.45 L 539.52,690.59 L 535.10,677.07 L 521.32,673.69 L 513.26,664.59 L 516.12,653.41 L 523.14,651.85 L 517.94,631.57 L 528.60,619.34 L 526.00,617.52 L 530.94,607.12 L 538.74,599.32 L 549.92,595.68 L 552.78,587.62 L 549.92,586.32 L 563.44,572.54 L 561.10,570.72 L 565.26,569.42 L 566.30,559.02 L 572.28,550.44 L 567.08,546.28 L 571.50,538.22 L 564.22,535.36 L 568.12,527.82 L 565.00,528.86 L 562.14,521.32 L 554.86,518.72 L 557.20,507.54 L 597.24,527.04 L 586.32,539.78 L 599.06,544.98 L 603.22,542.64 L 607.90,550.96 L 626.37,553.04 L 633.13,564.48 L 655.75,569.68 L 653.67,566.04 L 660.43,558.76 L 666.67,586.84 L 653.67,601.92 L 652.63,609.20 L 647.69,610.50 L 648.21,619.86 L 641.45,624.54 L 641.45,631.83 L 649.51,634.95 L 650.81,640.15 L 640.67,650.81 L 642.49,670.57 Z" data-name="Curug"/>
  <path d="M 63.44,166.93 L 89.96,176.55 L 95.68,165.89 L 108.16,165.63 L 112.58,170.57 L 111.02,186.17 L 118.82,194.49 L 126.11,195.53 L 130.53,206.97 L 127.15,228.29 L 132.61,231.67 L 150.55,231.41 L 151.33,239.21 L 159.13,242.85 L 156.27,257.93 L 187.21,264.17 L 187.73,283.15 L 191.89,293.03 L 183.57,302.13 L 150.29,313.57 L 129.23,336.19 L 112.58,319.03 L 114.14,306.55 L 94.38,289.91 L 92.82,277.95 L 75.66,296.67 L 70.20,315.65 L 59.28,306.03 L 65.52,303.69 L 58.50,293.55 L 42.90,286.01 L 37.70,277.17 L 31.98,279.51 L 29.12,275.61 L 27.04,257.67 L 34.84,253.51 L 28.08,244.41 L 34.32,242.33 L 36.66,230.89 L 30.42,230.11 L 34.58,222.83 L 23.40,215.81 L 1.56,184.61 L 0.00,154.97 L 26.26,153.67 L 28.34,144.57 L 31.72,144.31 L 33.54,152.63 L 40.04,157.83 L 48.36,153.15 L 63.44,166.93 Z" data-name="GunungKaler"/>
  <path d="M 462.04,853.87 L 481.54,858.03 L 481.28,862.97 L 486.48,865.83 L 481.80,872.07 L 491.42,872.85 L 495.58,868.43 L 500.52,873.63 L 496.62,878.06 L 499.22,882.22 L 491.42,888.20 L 494.80,892.36 L 485.70,899.38 L 475.04,900.94 L 474.52,908.22 L 467.24,914.20 L 460.74,910.82 L 446.44,913.94 L 423.82,890.80 L 422.52,910.82 L 414.98,916.02 L 355.69,903.02 L 356.21,885.34 L 374.67,881.96 L 369.99,854.13 L 375.46,851.01 L 376.24,835.67 L 360.89,814.09 L 355.69,793.81 L 343.21,792.77 L 344.25,786.79 L 337.75,779.77 L 386.90,754.55 L 391.32,737.13 L 417.58,744.67 L 428.50,738.17 L 428.24,745.71 L 432.92,744.67 L 429.54,749.09 L 433.44,750.65 L 438.38,745.71 L 443.84,749.09 L 448.78,744.41 L 446.70,751.43 L 454.50,755.33 L 437.34,779.77 L 445.14,783.15 L 441.24,797.19 L 446.70,797.19 L 450.08,804.47 L 456.32,803.69 L 453.72,808.37 L 459.18,811.75 L 453.46,814.87 L 461.78,815.91 L 452.42,819.81 L 455.54,824.49 L 450.08,828.91 L 456.58,835.41 L 452.42,836.97 L 455.54,842.17 L 450.60,846.85 L 457.10,848.15 L 456.84,854.65 L 462.04,853.87 Z" data-name="Jambe"/>
  <path d="M 164.33,566.56 L 159.65,577.22 L 163.55,584.76 L 163.03,602.70 L 147.17,605.56 L 124.28,580.86 L 110.24,580.08 L 114.14,573.06 L 108.94,565.00 L 101.14,562.40 L 104.52,559.02 L 87.62,566.82 L 80.60,559.54 L 71.76,557.46 L 70.98,547.06 L 76.44,547.32 L 74.10,553.30 L 78.26,554.34 L 78.78,537.44 L 91.00,541.34 L 86.84,531.20 L 97.76,523.14 L 96.72,514.56 L 103.74,512.74 L 101.14,499.74 L 86.58,498.96 L 89.44,488.56 L 99.84,479.20 L 105.56,482.32 L 105.56,475.30 L 114.66,473.22 L 178.11,475.82 L 186.95,472.18 L 188.77,464.64 L 203.07,466.46 L 210.35,474.78 L 232.45,485.18 L 217.89,498.18 L 214.25,507.54 L 203.85,513.00 L 203.07,516.90 L 207.75,516.64 L 218.93,527.82 L 211.39,540.82 L 194.75,536.66 L 195.01,546.02 L 200.99,549.14 L 192.93,566.04 L 170.05,562.92 L 164.85,563.18 L 164.33,566.56 Z" data-name="Jayanti"/>
  <path d="M 705.67,576.44 L 709.31,581.64 L 723.87,575.40 L 727.77,582.16 L 749.87,582.94 L 756.89,576.96 L 772.75,585.28 L 780.29,591.26 L 773.79,608.16 L 792.25,620.12 L 791.73,632.35 L 753.77,633.65 L 752.21,644.31 L 758.19,646.65 L 755.33,656.01 L 767.81,669.79 L 761.05,673.17 L 725.95,678.89 L 717.89,672.39 L 714.25,650.55 L 703.07,637.03 L 691.63,669.79 L 674.73,699.43 L 663.29,696.57 L 656.53,699.95 L 656.27,693.19 L 648.99,689.55 L 643.01,693.19 L 635.99,690.59 L 633.91,684.35 L 642.49,671.09 L 640.67,650.81 L 650.81,640.15 L 649.51,634.95 L 641.45,631.83 L 641.45,624.54 L 648.21,619.86 L 647.69,610.50 L 652.63,609.20 L 653.67,601.92 L 666.67,586.84 L 667.19,578.78 L 660.43,570.20 L 664.07,567.86 L 659.13,561.10 L 666.41,526.00 L 669.79,530.42 L 680.97,525.74 L 689.81,532.50 L 683.83,545.50 L 710.35,551.74 L 702.29,563.44 L 712.17,563.44 L 712.95,572.02 L 705.67,576.44 Z" data-name="KelapaDua"/>
  <path d="M 340.61,296.93 L 337.23,315.91 L 328.91,326.57 L 334.89,326.83 L 334.37,333.59 L 328.91,333.59 L 328.91,337.75 L 311.75,338.79 L 325.79,355.69 L 318.77,362.97 L 304.47,361.93 L 285.75,331.77 L 274.83,333.07 L 273.01,316.69 L 284.71,302.13 L 280.81,276.13 L 274.05,270.67 L 277.17,261.05 L 283.67,256.37 L 278.73,238.43 L 286.27,229.33 L 276.13,215.81 L 271.19,199.43 L 280.03,178.37 L 278.73,168.23 L 288.35,154.97 L 282.63,145.61 L 295.37,134.69 L 310.45,87.62 L 315.39,86.06 L 348.41,106.86 L 371.81,109.20 L 366.87,135.21 L 375.98,173.95 L 388.20,190.07 L 381.70,200.99 L 389.76,203.59 L 367.91,208.79 L 369.99,215.29 L 364.01,241.03 L 367.13,262.09 L 351.27,293.29 L 340.61,296.93 Z" data-name="Kemiri"/>
  <path d="M 822.67,282.11 L 788.09,295.63 L 788.09,270.93 L 774.83,268.07 L 781.59,264.95 L 791.21,272.49 L 826.05,275.35 L 830.21,269.89 L 822.67,253.25 L 834.37,253.25 L 836.71,249.35 L 856.47,244.67 L 850.75,205.93 L 844.77,199.95 L 825.27,196.57 L 827.09,178.63 L 846.33,158.35 L 874.15,149.77 L 886.64,132.09 L 918.62,104.52 L 938.12,96.98 L 940.72,104.52 L 945.14,102.44 L 948.52,107.38 L 953.46,102.18 L 972.70,107.38 L 964.90,111.80 L 962.56,120.12 L 970.36,170.05 L 1000.00,219.97 L 966.20,239.21 L 877.80,245.45 L 873.89,256.37 L 859.85,258.45 L 863.49,265.73 L 822.67,282.11 Z" data-name="Kosambi"/>
  <path d="M 822.15,253.25 L 822.67,253.25 L 822.41,253.51 L 822.15,253.25 Z" data-name="Kosambi"/>
  <path d="M 126.11,456.84 L 132.61,458.14 L 134.95,449.56 L 128.45,450.08 L 128.71,446.44 L 142.75,434.22 L 131.83,429.02 L 132.87,421.74 L 140.93,421.74 L 132.35,413.68 L 138.85,411.60 L 139.11,407.96 L 125.07,399.64 L 138.59,398.34 L 138.33,385.34 L 102.44,341.13 L 98.28,325.79 L 84.50,326.57 L 71.24,319.55 L 75.66,296.67 L 92.82,277.95 L 94.38,289.91 L 114.14,306.55 L 112.58,319.03 L 129.23,336.19 L 150.29,313.57 L 183.57,302.13 L 191.89,293.03 L 206.97,300.57 L 226.99,295.37 L 239.21,284.97 L 249.87,293.29 L 252.99,300.31 L 250.91,309.93 L 257.15,315.39 L 244.67,326.57 L 238.69,348.93 L 228.81,357.25 L 219.19,358.55 L 217.37,367.13 L 205.41,368.17 L 195.79,382.22 L 194.23,389.24 L 199.17,399.38 L 184.61,420.44 L 181.23,436.82 L 187.99,453.72 L 187.99,471.14 L 176.55,475.82 L 120.64,474.26 L 120.64,465.16 L 126.11,456.84 Z" data-name="Kresek"/>
  <path d="M 285.49,232.19 L 278.73,238.43 L 283.67,256.37 L 277.17,261.05 L 274.05,270.67 L 280.81,276.13 L 284.45,303.17 L 273.27,315.65 L 272.49,325.79 L 249.61,322.15 L 257.15,315.39 L 250.91,309.93 L 252.99,300.31 L 249.61,293.03 L 236.87,283.41 L 236.87,287.57 L 224.39,296.67 L 205.93,300.57 L 199.43,294.07 L 192.15,293.81 L 187.73,283.15 L 187.47,264.69 L 203.85,238.69 L 208.27,237.65 L 208.53,230.89 L 188.51,225.43 L 189.81,222.05 L 167.97,223.61 L 168.75,207.23 L 182.27,202.03 L 186.17,155.75 L 178.89,162.25 L 168.75,162.25 L 159.39,156.27 L 163.29,140.41 L 154.45,126.11 L 162.25,114.92 L 163.29,110.24 L 158.35,107.38 L 188.77,53.04 L 197.61,53.30 L 238.43,74.10 L 262.35,73.06 L 266.51,62.92 L 267.03,70.98 L 277.17,78.26 L 310.45,87.62 L 295.37,134.69 L 282.63,145.61 L 288.35,154.97 L 278.73,168.23 L 280.03,178.37 L 271.19,199.43 L 285.49,232.19 Z" data-name="Kronjo"/>
  <path d="M 643.79,692.93 L 647.95,689.03 L 656.27,693.19 L 656.53,699.95 L 663.29,696.57 L 674.73,699.43 L 663.55,728.81 L 671.87,732.71 L 671.61,741.55 L 679.67,743.11 L 683.31,755.07 L 680.45,756.11 L 680.45,768.59 L 670.05,774.83 L 652.63,780.81 L 645.09,777.95 L 644.57,782.37 L 656.27,793.81 L 652.11,803.95 L 652.37,820.07 L 628.45,821.63 L 611.80,857.25 L 611.80,873.63 L 589.96,868.17 L 583.72,873.63 L 571.50,866.87 L 571.76,874.93 L 568.12,876.24 L 563.96,865.05 L 557.98,861.67 L 552.26,864.27 L 552.78,859.33 L 544.46,858.81 L 551.74,856.73 L 526.78,859.07 L 526.78,853.87 L 522.88,857.25 L 517.42,851.27 L 506.24,854.65 L 505.46,849.97 L 495.58,848.15 L 497.40,845.55 L 491.68,843.73 L 493.24,839.05 L 487.52,834.63 L 465.68,841.13 L 450.34,829.17 L 455.54,824.49 L 452.42,819.81 L 461.78,815.91 L 453.46,814.61 L 465.94,803.17 L 477.12,803.17 L 481.80,807.33 L 505.98,797.97 L 515.08,810.45 L 524.18,809.15 L 526.00,800.31 L 540.30,811.49 L 541.86,804.47 L 558.50,797.97 L 554.86,786.53 L 561.88,778.99 L 552.26,765.21 L 560.32,754.29 L 550.44,732.71 L 552.78,708.53 L 549.92,702.03 L 540.56,701.77 L 535.62,695.27 L 536.92,686.43 L 550.96,693.45 L 558.24,690.33 L 562.66,696.05 L 571.76,696.83 L 577.74,705.41 L 596.72,703.33 L 603.22,699.43 L 604.00,694.23 L 617.26,689.55 L 624.80,681.75 L 634.17,683.57 L 635.99,690.59 L 643.79,692.93 Z" data-name="Legok"/>
  <path d="M 387.94,187.73 L 375.98,173.95 L 366.87,135.21 L 371.81,109.20 L 410.56,98.80 L 440.72,83.98 L 461.78,66.82 L 468.28,68.38 L 481.80,55.64 L 477.64,51.22 L 483.88,52.26 L 489.60,47.32 L 483.10,43.68 L 484.40,40.82 L 508.06,18.20 L 546.28,49.14 L 544.72,58.24 L 537.96,57.98 L 549.92,65.00 L 541.34,63.96 L 542.38,70.98 L 537.18,72.54 L 536.14,81.64 L 528.34,89.70 L 538.22,98.54 L 533.28,133.91 L 535.10,154.19 L 539.78,156.01 L 534.06,157.83 L 527.56,180.45 L 533.28,188.77 L 542.38,191.63 L 533.80,208.53 L 537.70,216.85 L 534.84,224.65 L 528.08,222.05 L 523.40,226.21 L 525.74,240.25 L 513.00,229.59 L 513.26,217.37 L 508.58,213.73 L 501.82,218.93 L 465.16,217.11 L 464.12,223.35 L 437.08,226.99 L 435.00,215.81 L 427.20,207.75 L 406.92,200.73 L 387.94,187.73 Z" data-name="Mauk"/>
  <path d="M 186.43,263.13 L 156.27,257.93 L 159.13,242.85 L 151.33,239.21 L 150.55,231.41 L 132.61,231.67 L 127.15,228.29 L 130.53,206.97 L 126.11,195.53 L 118.82,194.49 L 111.02,186.17 L 112.58,170.57 L 108.16,165.63 L 95.68,165.89 L 89.96,176.55 L 83.98,175.51 L 66.56,169.01 L 48.36,153.15 L 40.56,158.09 L 33.54,152.63 L 31.98,144.31 L 24.70,140.41 L 31.98,140.41 L 44.46,119.34 L 51.22,120.12 L 48.62,109.46 L 68.12,92.30 L 81.64,87.62 L 85.54,105.30 L 90.74,96.20 L 102.18,90.48 L 105.30,81.12 L 113.62,74.36 L 113.36,67.86 L 119.08,71.76 L 119.86,65.26 L 124.80,71.50 L 128.97,70.72 L 126.63,63.18 L 148.47,66.30 L 152.89,62.92 L 160.69,69.42 L 177.85,71.24 L 158.35,107.38 L 163.29,110.24 L 162.25,114.92 L 154.45,126.11 L 163.29,140.41 L 159.39,156.27 L 168.75,162.25 L 178.89,162.25 L 186.17,155.75 L 182.27,202.03 L 168.75,207.23 L 167.97,223.61 L 189.81,222.05 L 188.51,225.43 L 208.53,230.89 L 208.27,237.65 L 203.85,238.69 L 190.33,264.17 L 186.43,263.13 Z" data-name="Mekarbaru"/>
  <path d="M 651.07,881.18 L 651.59,887.94 L 644.83,896.26 L 631.83,889.76 L 633.13,886.64 L 619.08,875.46 L 618.56,871.03 L 616.48,877.80 L 610.24,879.36 L 611.54,858.29 L 628.45,821.63 L 652.37,820.07 L 652.11,803.95 L 656.27,793.81 L 644.57,782.37 L 645.09,777.95 L 653.41,780.55 L 680.97,767.29 L 683.31,754.03 L 679.67,743.11 L 671.61,741.55 L 671.87,732.71 L 663.55,728.81 L 703.07,637.03 L 714.25,650.55 L 717.89,672.39 L 726.21,678.89 L 767.81,669.79 L 755.33,656.01 L 758.19,646.65 L 752.21,644.31 L 753.77,633.65 L 791.73,632.35 L 805.25,669.27 L 800.83,682.01 L 812.53,690.07 L 810.19,699.43 L 797.19,708.53 L 798.49,716.59 L 807.59,728.81 L 822.67,735.05 L 827.09,744.67 L 819.55,752.99 L 798.23,750.91 L 794.33,802.91 L 786.53,825.01 L 783.41,829.43 L 758.19,832.03 L 749.87,840.09 L 708.01,840.35 L 704.11,872.59 L 684.09,881.18 L 663.81,877.54 L 651.07,881.18 Z" data-name="Pagedangan"/>
  <path d="M 759.49,258.97 L 757.93,264.17 L 754.29,263.91 L 748.31,254.29 L 738.95,253.77 L 738.95,244.41 L 725.69,241.55 L 712.43,249.61 L 707.49,244.67 L 712.17,235.83 L 708.79,232.19 L 705.93,237.13 L 685.13,240.51 L 681.75,249.09 L 669.01,260.27 L 661.47,256.63 L 658.09,248.57 L 662.77,228.81 L 660.43,221.79 L 641.45,221.27 L 622.98,212.43 L 624.02,193.97 L 620.12,178.89 L 596.20,178.11 L 598.80,144.57 L 614.66,144.83 L 614.14,148.21 L 619.08,148.47 L 621.16,142.49 L 616.22,133.91 L 617.78,128.71 L 603.22,128.45 L 593.08,113.36 L 601.14,76.18 L 598.54,70.20 L 620.90,71.76 L 643.27,68.12 L 670.83,56.68 L 711.13,50.70 L 732.71,35.36 L 763.39,3.64 L 779.51,0.00 L 790.95,5.72 L 776.13,13.52 L 760.53,34.06 L 760.53,42.64 L 774.31,46.28 L 765.21,56.68 L 758.71,81.90 L 753.25,82.94 L 760.53,94.90 L 758.97,111.80 L 767.55,120.38 L 767.29,131.83 L 762.61,138.59 L 762.35,160.95 L 777.17,206.97 L 776.13,215.81 L 766.77,218.67 L 766.25,222.57 L 772.49,226.73 L 771.97,236.09 L 764.43,243.37 L 765.99,249.09 L 756.11,249.09 L 759.49,258.97 Z" data-name="Pakuhaji"/>
  <path d="M 557.46,798.49 L 541.86,804.47 L 540.30,811.49 L 526.00,800.31 L 524.18,809.15 L 515.08,810.45 L 505.98,797.97 L 481.80,807.33 L 477.12,803.17 L 465.94,803.17 L 459.44,811.23 L 453.72,808.37 L 456.32,803.69 L 450.08,804.47 L 446.70,797.19 L 441.24,797.19 L 445.14,783.15 L 437.34,779.77 L 438.64,773.53 L 454.50,755.33 L 446.70,751.43 L 448.26,744.41 L 444.10,749.09 L 441.76,744.93 L 440.46,748.83 L 438.38,745.71 L 429.80,749.61 L 433.44,745.45 L 428.24,745.71 L 428.50,736.87 L 439.42,739.99 L 430.84,732.45 L 436.30,729.85 L 432.92,725.43 L 436.56,723.35 L 430.06,718.15 L 433.70,714.25 L 438.90,717.63 L 441.50,711.65 L 443.06,715.29 L 448.00,710.87 L 445.92,705.41 L 449.82,705.41 L 442.80,701.51 L 442.80,693.45 L 437.86,695.01 L 437.60,690.07 L 430.58,688.51 L 430.84,684.87 L 427.72,684.09 L 428.50,689.55 L 424.86,691.37 L 419.40,683.83 L 423.82,682.53 L 417.84,678.37 L 422.00,676.29 L 419.66,666.93 L 414.98,670.05 L 414.20,665.11 L 409.00,663.03 L 410.56,658.87 L 405.62,660.17 L 405.88,655.23 L 410.30,654.97 L 403.54,652.63 L 406.66,647.69 L 400.94,646.39 L 407.96,645.87 L 401.72,641.19 L 407.18,637.03 L 405.36,634.69 L 397.30,638.85 L 398.86,632.61 L 393.14,635.47 L 399.64,625.85 L 409.00,624.02 L 408.48,619.08 L 417.32,613.88 L 418.36,619.34 L 433.96,630.01 L 431.88,626.63 L 437.86,626.37 L 439.16,621.68 L 463.34,632.87 L 485.18,622.20 L 495.06,625.07 L 495.06,628.19 L 504.94,628.97 L 505.46,624.54 L 520.02,626.37 L 517.42,638.85 L 523.14,643.53 L 523.14,651.85 L 516.12,653.41 L 513.26,664.59 L 521.32,673.69 L 535.10,677.07 L 535.62,695.27 L 540.56,701.77 L 551.48,704.37 L 553.56,716.33 L 550.44,732.71 L 560.32,754.29 L 552.26,765.21 L 561.88,778.99 L 554.86,786.53 L 557.46,798.49 Z" data-name="Panongan"/>
  <path d="M 516.90,477.90 L 508.58,479.46 L 496.36,498.70 L 489.86,496.62 L 501.30,394.18 L 497.40,384.56 L 486.22,378.84 L 490.64,345.55 L 504.42,336.19 L 555.12,330.99 L 566.82,320.59 L 574.88,329.69 L 589.70,326.05 L 587.62,334.37 L 595.42,346.85 L 608.16,352.57 L 617.78,367.13 L 619.08,378.84 L 646.65,410.56 L 634.95,412.64 L 632.35,424.60 L 627.15,424.86 L 621.94,432.66 L 622.98,438.38 L 595.68,445.40 L 585.80,453.72 L 586.32,458.14 L 556.16,469.32 L 556.42,479.72 L 552.52,479.72 L 551.48,484.66 L 516.90,477.90 Z" data-name="PasarKemis"/>
  <path d="M 525.74,254.29 L 522.36,258.71 L 532.76,267.03 L 529.12,283.93 L 563.70,274.83 L 562.66,284.71 L 583.72,293.03 L 587.10,302.65 L 594.64,308.37 L 589.96,325.79 L 574.88,329.69 L 566.82,320.59 L 560.84,328.39 L 551.74,331.77 L 530.94,330.99 L 504.42,336.19 L 490.64,345.55 L 486.74,368.95 L 464.38,369.99 L 450.34,356.21 L 428.24,360.37 L 424.08,348.15 L 405.10,343.73 L 407.96,369.99 L 401.46,372.33 L 388.46,392.10 L 377.54,386.64 L 375.46,370.51 L 369.21,366.09 L 369.99,355.17 L 346.33,352.31 L 344.25,360.37 L 338.53,361.41 L 332.55,356.47 L 326.05,356.99 L 311.75,338.79 L 328.91,337.75 L 328.91,333.59 L 334.37,333.59 L 334.89,326.83 L 328.91,326.57 L 337.23,315.91 L 339.05,295.89 L 351.27,293.29 L 367.13,262.09 L 364.01,241.03 L 369.99,215.29 L 367.91,208.79 L 389.76,203.59 L 381.70,200.99 L 388.20,190.07 L 427.20,207.75 L 435.00,215.81 L 437.08,226.99 L 464.12,223.35 L 465.16,217.11 L 501.82,218.93 L 508.58,213.73 L 513.26,217.37 L 513.00,229.59 L 525.74,240.51 L 525.74,254.29 Z" data-name="Rajeg"/>
  <path d="M 647.17,410.30 L 619.08,378.84 L 617.78,367.13 L 608.16,352.57 L 596.20,348.15 L 588.14,335.93 L 592.82,304.47 L 587.62,303.43 L 583.72,293.03 L 561.62,283.41 L 590.22,270.41 L 600.62,239.73 L 620.38,210.87 L 641.45,221.27 L 660.43,221.79 L 662.77,228.81 L 658.09,249.09 L 660.69,255.85 L 669.01,260.27 L 658.61,265.99 L 637.03,290.43 L 636.77,297.97 L 670.31,306.55 L 654.71,326.05 L 654.71,338.53 L 645.87,343.47 L 645.35,347.63 L 650.55,348.15 L 656.27,402.76 L 647.17,410.30 Z" data-name="Sepatan"/>
  <path d="M 708.53,347.89 L 718.67,357.25 L 712.17,374.67 L 655.49,376.24 L 650.03,368.43 L 652.89,365.57 L 650.55,348.15 L 645.35,347.63 L 645.87,343.47 L 654.71,338.53 L 654.71,326.05 L 670.31,306.55 L 636.77,297.97 L 641.45,282.89 L 648.21,281.07 L 658.61,265.99 L 675.25,256.37 L 685.13,240.51 L 705.93,237.13 L 708.79,232.19 L 712.17,235.83 L 707.49,244.67 L 712.43,249.61 L 724.13,241.55 L 738.95,244.41 L 738.95,253.77 L 748.31,254.29 L 756.11,264.43 L 759.49,258.97 L 756.11,249.09 L 765.99,249.09 L 770.67,264.69 L 758.97,295.63 L 761.57,302.91 L 756.63,305.77 L 752.99,302.13 L 737.65,304.47 L 722.31,311.23 L 713.73,319.29 L 713.99,332.81 L 705.67,342.17 L 708.53,347.89 Z" data-name="SepatanTimur"/>
  <path d="M 453.98,507.54 L 408.48,504.68 L 400.16,507.80 L 375.20,496.62 L 373.63,503.90 L 366.09,497.40 L 369.21,492.72 L 362.19,488.56 L 331.51,483.10 L 332.55,476.34 L 337.75,477.90 L 342.43,472.70 L 347.11,458.66 L 342.17,456.32 L 346.33,450.60 L 343.47,444.10 L 341.91,450.34 L 336.97,452.16 L 338.53,440.98 L 328.91,441.24 L 334.63,432.40 L 324.23,428.24 L 329.69,424.08 L 323.97,424.60 L 322.15,420.44 L 326.57,405.62 L 332.81,402.76 L 325.01,397.30 L 330.73,391.84 L 334.63,396.52 L 334.63,390.28 L 340.61,386.64 L 331.25,382.48 L 333.07,370.77 L 323.71,366.87 L 322.93,359.33 L 331.25,356.21 L 342.95,361.41 L 346.33,352.31 L 369.99,355.17 L 369.21,366.09 L 375.46,370.51 L 377.54,386.64 L 388.46,392.10 L 401.46,372.33 L 407.96,369.99 L 405.10,343.73 L 424.08,348.15 L 428.24,360.37 L 450.34,356.21 L 464.38,369.99 L 487.78,368.95 L 486.22,378.84 L 497.40,384.56 L 501.30,394.18 L 491.94,490.64 L 484.14,509.36 L 453.98,507.54 Z" data-name="SindangJaya"/>
  <path d="M 169.01,871.81 L 165.89,865.83 L 168.75,858.55 L 156.79,854.91 L 161.21,853.35 L 163.81,837.75 L 156.01,842.17 L 154.45,838.27 L 159.39,833.33 L 151.85,834.89 L 156.79,819.55 L 149.51,815.39 L 155.75,812.27 L 136.51,806.81 L 143.27,806.81 L 146.65,788.61 L 143.27,784.19 L 150.81,783.41 L 154.71,777.43 L 153.41,764.17 L 144.05,754.81 L 138.85,727.77 L 132.87,724.65 L 133.13,719.45 L 163.55,718.93 L 169.27,720.23 L 169.01,724.65 L 185.65,726.99 L 186.69,717.37 L 190.85,718.67 L 192.67,714.25 L 204.89,721.53 L 208.79,730.37 L 260.01,723.09 L 259.75,736.35 L 266.51,740.77 L 290.95,735.83 L 292.51,699.95 L 281.33,669.27 L 296.67,661.99 L 305.77,670.83 L 304.47,677.33 L 310.19,680.97 L 307.85,683.57 L 313.83,687.47 L 316.17,695.27 L 325.53,698.65 L 326.57,706.71 L 322.41,706.19 L 319.29,724.65 L 315.91,726.21 L 319.29,732.19 L 315.65,737.13 L 317.47,742.85 L 288.87,745.19 L 279.77,753.25 L 267.81,754.29 L 265.73,749.09 L 236.35,755.07 L 224.13,765.99 L 230.89,774.83 L 242.59,775.87 L 248.83,793.81 L 246.49,801.35 L 234.53,807.33 L 234.01,835.93 L 237.91,838.01 L 245.97,831.77 L 250.39,822.15 L 265.73,820.85 L 268.59,835.41 L 237.39,894.96 L 228.81,896.78 L 215.29,891.84 L 210.09,898.08 L 205.41,891.32 L 201.25,894.96 L 198.65,890.54 L 193.45,890.80 L 191.89,885.60 L 184.35,887.94 L 185.39,872.59 L 174.21,875.46 L 169.01,871.81 Z" data-name="Solear"/>
  <path d="M 560.84,281.33 L 563.96,275.09 L 529.12,283.93 L 532.76,267.03 L 522.10,258.45 L 526.00,253.25 L 523.40,226.21 L 528.08,222.05 L 534.84,224.65 L 537.70,216.85 L 533.80,208.53 L 542.38,191.63 L 533.28,188.77 L 527.56,180.45 L 534.06,157.83 L 539.78,156.01 L 535.10,154.19 L 533.28,133.91 L 538.22,98.54 L 528.34,89.70 L 536.14,81.64 L 537.18,72.54 L 542.38,70.98 L 541.34,63.96 L 549.92,65.00 L 537.96,57.98 L 544.72,58.24 L 546.28,49.14 L 598.54,70.20 L 601.14,76.18 L 593.60,115.96 L 603.22,128.45 L 617.78,128.71 L 616.22,133.91 L 621.16,142.49 L 619.08,148.47 L 614.14,148.21 L 614.66,144.83 L 598.80,144.57 L 595.94,176.55 L 620.12,178.89 L 624.02,210.35 L 619.60,211.13 L 600.62,239.73 L 590.22,270.41 L 560.84,281.33 Z" data-name="Sukadiri"/>
  <path d="M 234.53,485.96 L 212.17,476.08 L 203.07,466.46 L 188.77,464.64 L 181.49,435.52 L 184.61,420.44 L 199.17,399.38 L 194.23,388.20 L 203.85,369.73 L 217.37,367.13 L 219.19,358.55 L 231.93,355.43 L 239.47,347.63 L 244.67,326.57 L 251.69,321.11 L 259.23,321.63 L 272.49,325.79 L 275.87,333.85 L 285.75,331.77 L 304.47,361.93 L 317.21,363.49 L 322.41,359.59 L 323.71,366.87 L 333.07,370.77 L 331.25,382.48 L 340.61,386.64 L 334.63,390.28 L 334.63,396.52 L 330.73,391.84 L 325.01,397.30 L 332.81,402.76 L 326.57,405.62 L 322.15,420.44 L 307.33,422.26 L 297.71,412.64 L 282.63,416.28 L 278.99,442.02 L 284.19,461.78 L 281.59,472.18 L 272.75,482.32 L 254.29,484.14 L 251.17,480.76 L 234.53,485.96 Z" data-name="Sukamulya"/>
  <path d="M 775.35,265.21 L 770.67,265.73 L 764.17,244.93 L 771.97,236.09 L 772.49,226.73 L 766.25,222.57 L 766.77,218.67 L 776.13,215.81 L 777.17,206.97 L 762.35,160.95 L 762.61,138.59 L 767.29,131.83 L 767.55,120.38 L 758.97,111.80 L 760.53,94.90 L 757.93,85.80 L 753.25,83.20 L 758.71,81.90 L 765.21,56.68 L 774.31,46.28 L 760.53,42.64 L 760.53,34.06 L 778.99,12.74 L 807.59,7.80 L 811.75,12.22 L 808.89,15.86 L 816.17,31.98 L 828.39,37.70 L 825.01,46.80 L 839.83,50.96 L 884.04,23.66 L 893.14,33.80 L 936.04,58.50 L 948.00,72.28 L 960.74,78.00 L 980.76,107.12 L 961.78,106.60 L 953.46,102.18 L 948.52,107.38 L 945.14,102.44 L 940.72,104.52 L 939.94,97.24 L 932.92,98.54 L 916.02,106.60 L 886.64,132.09 L 874.15,149.77 L 846.33,158.35 L 826.83,179.15 L 825.27,196.05 L 844.77,199.95 L 850.75,205.93 L 856.47,244.67 L 836.71,249.35 L 834.37,253.25 L 822.67,253.25 L 830.21,269.89 L 826.05,275.35 L 791.21,272.49 L 784.19,265.73 L 775.35,265.21 Z" data-name="Teluknaga"/>
  <path d="M 822.15,253.25 L 822.41,253.51 L 822.67,253.25 L 822.15,253.25 Z" data-name="Teluknaga"/>
  <path d="M 238.43,804.99 L 247.27,800.57 L 248.83,793.81 L 242.59,775.87 L 230.89,774.83 L 224.13,765.99 L 229.85,757.41 L 265.73,749.09 L 267.81,754.29 L 279.77,753.25 L 288.87,745.19 L 317.47,742.85 L 315.65,737.13 L 319.29,732.19 L 315.91,726.21 L 319.29,724.65 L 322.41,706.19 L 326.57,706.71 L 325.53,698.65 L 316.17,695.27 L 313.83,687.47 L 307.85,683.57 L 310.19,680.97 L 304.47,677.33 L 305.77,670.83 L 296.67,661.99 L 278.73,671.35 L 261.31,663.29 L 264.43,656.01 L 257.67,638.85 L 260.01,614.92 L 254.29,604.26 L 257.41,596.46 L 268.33,596.20 L 269.11,592.30 L 276.13,594.12 L 278.99,588.14 L 287.57,586.84 L 291.21,568.12 L 305.25,551.22 L 324.49,552.78 L 330.73,533.80 L 326.83,530.68 L 329.95,520.02 L 335.67,514.56 L 332.03,500.52 L 335.93,494.80 L 345.03,507.80 L 340.87,513.00 L 348.93,510.40 L 348.67,518.72 L 354.39,519.50 L 355.17,513.52 L 356.73,518.72 L 361.15,518.20 L 357.25,524.96 L 361.41,525.74 L 363.23,536.40 L 358.55,536.14 L 356.21,541.86 L 362.97,550.70 L 360.89,553.30 L 357.77,548.88 L 354.39,553.04 L 358.81,566.82 L 364.01,568.12 L 361.41,573.58 L 364.01,575.92 L 358.55,578.78 L 366.87,579.82 L 360.89,584.50 L 375.72,599.06 L 368.69,598.02 L 364.27,603.48 L 379.88,611.80 L 373.37,618.56 L 380.14,617.00 L 378.84,624.80 L 388.46,619.08 L 386.90,624.80 L 391.06,626.37 L 386.64,631.83 L 391.06,629.23 L 393.66,635.73 L 399.64,632.87 L 397.56,638.85 L 406.40,635.21 L 401.72,641.19 L 408.22,645.09 L 400.94,646.39 L 406.66,647.69 L 403.54,652.63 L 410.30,654.97 L 405.88,655.23 L 405.62,660.17 L 410.56,658.87 L 409.00,663.03 L 414.20,665.11 L 414.98,670.05 L 419.66,666.93 L 422.00,676.29 L 417.84,678.37 L 423.82,682.53 L 419.40,683.83 L 424.86,691.37 L 430.32,684.61 L 430.58,688.51 L 437.60,690.07 L 437.86,695.01 L 442.80,693.45 L 442.80,701.51 L 449.82,704.89 L 445.92,705.41 L 448.00,710.87 L 443.06,715.29 L 441.50,711.65 L 438.90,717.63 L 433.70,714.25 L 430.32,716.85 L 431.10,721.53 L 436.56,723.35 L 432.92,725.43 L 436.30,729.85 L 430.84,732.45 L 435.78,733.75 L 433.96,737.91 L 439.16,741.03 L 429.02,736.87 L 417.58,744.67 L 391.32,737.13 L 386.90,754.55 L 330.73,783.15 L 325.01,793.81 L 272.49,835.93 L 268.59,836.19 L 265.73,820.85 L 250.39,822.15 L 245.97,831.77 L 237.91,838.01 L 234.01,835.93 L 234.01,810.19 L 238.43,804.99 Z" data-name="Tigaraksa"/>
</g>
</svg>